<?xml version="1.0" encoding="UTF-8"?>
<svg version="1.1" xmlns="http://www.w3.org/2000/svg" width="1048" height="1162">
<path d="M0 0 C0.66 0 1.32 0 2 0 C2.32417809 0.64873591 2.64835619 1.29747182 2.98235786 1.96586639 C22.22846051 40.48048693 41.47667344 78.99405219 60.7275986 117.50626253 C63.04302371 122.13836335 65.35843133 126.77047292 67.67382812 131.40258789 C68.13475031 132.32469457 68.5956725 133.24680125 69.07056202 134.19685056 C76.51759821 149.09526519 83.96321916 163.99438665 91.40831028 178.89377335 C99.05704988 194.20062934 106.70732622 209.50671655 114.359007 224.8121025 C119.07417825 234.24381188 123.78817331 243.67610715 128.50062867 253.1091738 C131.73947161 259.59217687 134.97981721 266.07442749 138.22130387 272.55610911 C140.08680345 276.28647262 141.95167879 280.01714445 143.81475639 283.74871826 C150.3234665 296.78415797 156.83020004 309.81491822 163.66197675 322.68519312 C167.56703668 330.04233352 171.30898605 337.47673719 175.02905273 344.92871094 C175.77112769 346.41149943 176.51337166 347.89420335 177.25576782 349.37683105 C179.23910236 353.33901226 181.21997276 357.30242023 183.20023227 361.26613903 C185.2958544 365.45995407 187.3934638 369.65277509 189.49073792 373.84576416 C193.01129313 380.88506571 196.53018043 387.92519911 200.0480957 394.96582031 C204.08327832 403.04161801 208.12133204 411.11597509 212.160891 419.18958449 C215.66081431 426.18485396 219.15913898 433.18092126 222.65619236 440.17762589 C224.73082021 444.32842029 226.80594832 448.4789622 228.88253593 452.62877655 C230.83880199 456.53836247 232.79302178 460.44896518 234.74583817 464.36027527 C235.45167854 465.77324859 236.15815495 467.18590446 236.86541557 468.59816742 C240.55405908 475.96478599 244.18125253 483.35656089 247.71800346 490.79746335 C253.66774233 503.31061874 259.79606254 515.72711961 266.00358582 528.1139679 C267.06507828 530.23595356 268.12638981 532.35802973 269.18753892 534.48018712 C271.76845744 539.64056699 274.35121552 544.80002297 276.93479191 549.9590726 C280.03614331 556.15233331 283.13507444 562.34680412 286.23391224 568.5413228 C291.95046479 579.96848011 297.66877025 591.39475933 303.38799095 602.82058144 C311.55313055 619.13295001 319.71484318 635.44703187 327.87587379 651.76145647 C331.15690536 658.32041198 334.43804683 664.87931253 337.71918964 671.43821239 C338.08356162 672.16658158 338.4479336 672.89495077 338.82334715 673.64539175 C347.47392469 690.93759679 356.12558884 708.22925811 364.77758789 725.52075195 C365.15566103 726.27635382 365.53373417 727.03195569 365.92326406 727.81045459 C374.759166 745.46951264 383.59558199 763.12831335 392.43286133 780.78668213 C392.81396156 781.5481854 393.19506178 782.30968866 393.5877105 783.09426779 C395.50990746 786.93514345 397.43210782 790.77601741 399.35430823 794.61689135 C399.73428304 795.37614419 400.11425786 796.13539704 400.50574706 796.91765755 C401.27269999 798.45015667 402.03965353 799.98265549 402.80660769 801.51515401 C415.46377688 826.80626845 428.11824329 852.09873375 440.7697177 877.39269743 C442.55374936 880.95948419 444.3378179 884.52625251 446.121912 888.09300804 C446.64854981 889.14586163 446.64854981 889.14586163 447.18582676 890.21998498 C452.84275083 901.52907105 458.50263571 912.83667284 464.1636959 924.14368893 C469.84128696 935.48383641 475.51607903 946.82538073 481.18794193 958.1683943 C484.26231041 964.3165334 487.33799869 970.46400391 490.41731071 976.60966873 C493.23107424 982.22565568 496.04121069 987.8434413 498.84837107 993.46273162 C499.86883847 995.50381875 500.89068446 997.54421728 501.91398623 999.58388487 C503.29575779 1002.3385386 504.67266738 1005.09556675 506.04829693 1007.85329151 C506.65724258 1009.06287299 506.65724258 1009.06287299 507.27849016 1010.29689047 C510 1015.77171233 510 1015.77171233 510 1018 C475.36136573 1018.12986811 440.72272367 1018.25741433 406.08407066 1018.38218227 C401.91859588 1018.39718808 397.75312116 1018.41221159 393.58764648 1018.42724609 C392.75898112 1018.43023671 391.93031576 1018.43322732 391.07653933 1018.43630856 C379.56848475 1018.47787692 368.06043401 1018.52038679 356.55238585 1018.56369519 C321.80534442 1018.69440557 287.0583071 1018.81722957 252.31115187 1018.91382825 C248.51320009 1018.92438779 244.71524863 1018.93505893 240.91729736 1018.94580078 C239.79856154 1018.94895998 239.79856154 1018.94895998 238.657225 1018.95218301 C226.8607922 1018.98579329 215.064424 1019.02995734 203.26804522 1019.07875234 C191.70460599 1019.12639783 180.14118712 1019.1632591 168.577676 1019.18922186 C162.3507968 1019.20352749 156.12403318 1019.22280325 149.8972187 1019.25502014 C144.21186641 1019.28432709 138.52665238 1019.29998138 132.84122777 1019.30438423 C130.78194341 1019.3084482 128.72266187 1019.31766874 126.66342616 1019.33239555 C123.88354406 1019.35155543 121.10425624 1019.35246238 118.32432556 1019.34851074 C117.51463194 1019.35851246 116.70493832 1019.36851418 115.87070853 1019.37881899 C110.47685771 1019.34333581 110.47685771 1019.34333581 108.04798698 1017.59455776 C106.84930181 1015.77070615 105.82532267 1013.96752425 104.87573242 1012.00024414 C104.47661652 1011.18176498 104.07750061 1010.36328583 103.66629028 1009.52000427 C103.23371918 1008.61750443 102.80114807 1007.71500458 102.35546875 1006.78515625 C101.8858371 1005.81945206 101.41620544 1004.85374786 100.93234253 1003.85877991 C99.89643404 1001.72812327 98.8631355 999.59619628 97.83206177 997.4631958 C94.95749788 991.51904854 92.06140431 985.58541066 89.1640625 979.65234375 C88.85086878 979.01056686 88.53767506 978.36878998 88.21499062 977.70756531 C82.61233407 966.23188807 76.92696636 954.79848523 71.2109375 943.37890625 C70.79208345 942.54205606 70.37322941 941.70520588 69.94168282 940.8429966 C66.16174957 933.29259455 62.37761813 925.74430082 58.58944702 918.19802856 C43.07489822 887.29162309 43.07489822 887.29162309 36.12054443 872.60353088 C29.90951378 859.52921286 23.36393026 846.61737337 16.87426758 833.67987061 C15.07545352 830.09268627 13.27905727 826.50429149 11.48242188 822.91601562 C7.99056859 815.94286272 4.49616269 808.97099346 1 802 C-5.14427851 813.5197205 -11.08035199 825.11011981 -16.75741577 836.86663818 C-24.83546445 853.57982866 -33.0803629 870.20802468 -41.38671875 886.80859375 C-41.84693546 887.72840216 -42.30715218 888.64821056 -42.78131485 889.59589195 C-47.46590182 898.95706937 -52.15553902 908.31570689 -56.85005951 917.67190647 C-68.75785923 941.36928679 -68.75785923 941.36928679 -80.30519104 965.2434082 C-84.79622263 974.72102194 -89.47585383 984.10284719 -94.17431641 993.47900391 C-95.66223351 996.44932916 -97.14570447 999.42184907 -98.62890625 1002.39453125 C-99.5778676 1004.29179543 -100.52707611 1006.18893602 -101.4765625 1008.0859375 C-101.91811676 1008.97107025 -102.35967102 1009.856203 -102.81460571 1010.76815796 C-103.21948212 1011.57475861 -103.62435852 1012.38135925 -104.04150391 1013.21240234 C-104.57464706 1014.27749527 -104.57464706 1014.27749527 -105.11856079 1015.36410522 C-106 1017 -106 1017 -107 1018 C-109.96671962 1018.12581362 -112.911095 1018.18559848 -115.8792572 1018.20433044 C-116.82593275 1018.21412805 -117.77260831 1018.22392567 -118.747971 1018.23402017 C-121.95817557 1018.26576557 -125.16839177 1018.29008639 -128.37866211 1018.31420898 C-130.68201774 1018.33478236 -132.9853707 1018.35565706 -135.28872108 1018.37681007 C-141.63160067 1018.4331803 -147.9745181 1018.48199907 -154.31747556 1018.52869725 C-158.35382788 1018.55845418 -162.39016174 1018.59036803 -166.42649651 1018.6224041 C-231.42453744 1019.13429888 -296.4226061 1019.11958687 -361.42221391 1019.07202756 C-372.62074955 1019.06392685 -383.81928432 1019.05857784 -395.01782227 1019.05493164 C-395.82239149 1019.05466892 -396.6269607 1019.05440619 -397.45591081 1019.05413551 C-401.49770398 1019.05282918 -405.53949717 1019.05156578 -409.58129036 1019.05032361 C-442.38753173 1019.04018701 -475.19376493 1019.02279344 -508 1019 C-508.33 1018.34 -508.66 1017.68 -509 1017 C-508.41229653 1015.32319641 -508.41229653 1015.32319641 -507.38901138 1013.2746582 C-507.00416242 1012.49452929 -506.61931345 1011.71440037 -506.2228024 1010.91063118 C-505.78771572 1010.0493807 -505.35262904 1009.18813023 -504.90435791 1008.30078125 C-504.45153214 1007.38888975 -503.99870637 1006.47699825 -503.53215861 1005.53747368 C-502.00075522 1002.45861276 -500.45788098 999.38564306 -498.91503906 996.3125 C-497.819082 994.11516966 -496.72380667 991.91749919 -495.62916565 989.71951294 C-492.95318078 984.35113573 -490.26966159 978.98658757 -487.58248755 973.62380731 C-485.39437728 969.25661585 -483.20939107 964.88787487 -481.02663422 960.51800537 C-480.71605886 959.89624172 -480.4054835 959.27447808 -480.08549677 958.63387311 C-479.45449014 957.3705809 -478.82349068 956.10728512 -478.1924983 954.8439858 C-472.26394232 942.97544775 -466.32556292 931.11184607 -460.38384995 919.24989057 C-455.30281154 909.10560918 -450.23009076 898.95720568 -445.16357422 888.80566406 C-439.27409814 877.00520689 -433.37933568 865.20741471 -427.47636771 853.4137001 C-426.84395681 852.15015236 -426.21155254 850.88660129 -425.57915497 849.62304688 C-425.11251755 848.69069769 -425.11251755 848.69069769 -424.63645311 847.73951316 C-422.46160123 843.39323937 -420.29042925 839.04513959 -418.12073517 834.69628906 C-415.18338376 828.80905849 -412.23737144 822.9262159 -409.28584099 817.04607773 C-408.21050638 814.90064516 -407.1378142 812.75388552 -406.06814003 810.60562515 C-397.37706405 793.15783342 -388.18939136 776.28027274 -376 761 C-374.8553125 759.54980469 -374.8553125 759.54980469 -373.6875 758.0703125 C-369.89947 753.3480724 -366.03554458 748.87518546 -361.67578125 744.67578125 C-359.31294903 742.31294903 -357.1925593 739.76330944 -355.06640625 737.1875 C-342.88014367 724.28710861 -327.29996104 713.83048877 -312 705 C-311.29746094 704.59185059 -310.59492188 704.18370117 -309.87109375 703.76318359 C-258.14685029 674.11890006 -195.82409613 667.69076937 -138.53515625 683.15625 C-134.63709491 684.28716605 -130.81693765 685.62332515 -127 687 C-125.82872559 687.40726318 -125.82872559 687.40726318 -124.63378906 687.82275391 C-99.36198112 696.64790705 -76.32971945 709.54000321 -56 727 C-54.97777344 727.82757812 -53.95554687 728.65515625 -52.90234375 729.5078125 C-36.58764706 742.75998165 -24.13819184 758.96898272 -12 776 C-12.32635941 775.3495018 -12.65271881 774.6990036 -12.9889679 774.02879333 C-16.12221204 767.78266205 -19.25333774 761.53547399 -22.3823061 755.28719997 C-23.98953416 752.07787906 -25.59747319 748.86891927 -27.20727539 745.66088867 C-33.93876522 732.24508159 -40.60997897 718.81010089 -47.0423584 705.24737549 C-50.1374324 698.74376784 -53.34149539 692.30311125 -56.61328125 685.88671875 C-68.12751287 663.29331053 -79.0238251 640.72656688 -88 617 C-88.24476074 616.35772461 -88.48952148 615.71544922 -88.74169922 615.05371094 C-108.99946165 561.84528537 -121.31477453 505.71975446 -126 449 C-126.13486816 447.38798706 -126.13486816 447.38798706 -126.27246094 445.7434082 C-132.71703356 362.91627545 -121.37620157 279.57064605 -68 136 C-67.70353577 135.37762451 -67.40707153 134.75524902 -67.10162354 134.11401367 C-64.76763803 129.21584878 -62.41859126 124.32506532 -60.0625 119.4375 C-59.74945923 118.78623138 -59.43641846 118.13496277 -59.1138916 117.46395874 C-55.15785349 109.24802158 -51.0401587 101.13166382 -46.79296875 93.0625 C-37.80411985 75.95771117 -29.25750883 58.62628769 -20.63354492 41.33575439 C-18.30147929 36.66123232 -15.96703284 31.98789951 -13.6328125 27.31445312 C-9.08626812 18.21076926 -4.5422775 9.10581349 0 0 Z " fill="#3268A1" transform="translate(521,74)"/>
<path d="M0 0 C0.78084961 0.27150879 1.56169922 0.54301758 2.36621094 0.82275391 C27.63801888 9.64790705 50.67028055 22.54000321 71 40 C72.53333984 41.24136719 72.53333984 41.24136719 74.09765625 42.5078125 C90.21808313 55.60217937 103.84151077 71.73388027 114.8515625 89.3359375 C115.94330194 91.03816429 115.94330194 91.03816429 117.42822266 92.36425781 C120.21364507 95.26303541 121.86395735 98.85280047 123.75 102.375 C124.17410156 103.13039063 124.59820313 103.88578125 125.03515625 104.6640625 C125.62876953 105.77007813 125.62876953 105.77007813 126.234375 106.8984375 C126.59756836 107.56536621 126.96076172 108.23229492 127.33496094 108.91943359 C128.9330105 113.9189117 126.02765746 118.2855432 123.7890625 122.6796875 C123.46142914 123.32833771 123.13379578 123.97698792 122.79623413 124.64529419 C121.74483472 126.72480025 120.68547736 128.80011083 119.625 130.875 C118.25945371 133.55809794 116.89820024 136.2433382 115.5390625 138.9296875 C115.20411081 139.59164061 114.86915913 140.25359371 114.52405739 140.935606 C111.56039881 146.82403563 108.71508649 152.76420487 105.88818359 158.71923828 C100.92690088 169.12819269 95.82969786 179.46298089 90.6541748 189.76681519 C89.1948117 192.67237884 87.73823172 195.57932458 86.28222656 198.48657227 C82.67041316 205.69706876 79.05415564 212.90533386 75.43798828 220.11364746 C72.36197091 226.24569242 69.28774116 232.3786277 66.21569824 238.51266479 C64.80467693 241.32839091 63.39119008 244.14286887 61.97753906 246.95727539 C56.33521832 258.21032817 50.8496785 269.53073036 45.43731689 280.89605713 C42.73228158 286.5722542 39.96587704 292.21459507 37.1484375 297.8359375 C36.67806061 298.77764801 36.20768372 299.71935852 35.72305298 300.68960571 C34.75824116 302.61989424 33.79247038 304.54970379 32.82568359 306.47900391 C31.33776649 309.44932916 29.85429553 312.42184907 28.37109375 315.39453125 C27.4221324 317.29179543 26.47292389 319.18893602 25.5234375 321.0859375 C24.86110611 322.41363663 24.86110611 322.41363663 24.18539429 323.76815796 C23.78051788 324.57475861 23.37564148 325.38135925 22.95849609 326.21240234 C22.60306732 326.92246429 22.24763855 327.63252625 21.88143921 328.36410522 C21 330 21 330 20 331 C17.03328038 331.12581362 14.088905 331.18559848 11.1207428 331.20433044 C10.17406725 331.21412805 9.22739169 331.22392567 8.252029 331.23402017 C5.04182443 331.26576557 1.83160823 331.29008639 -1.37866211 331.31420898 C-3.68201774 331.33478236 -5.9853707 331.35565706 -8.28872108 331.37681007 C-14.63160067 331.4331803 -20.9745181 331.48199907 -27.31747556 331.52869725 C-31.35382788 331.55845418 -35.39016174 331.59036803 -39.42649651 331.6224041 C-104.42453744 332.13429888 -169.4226061 332.11958687 -234.42221391 332.07202756 C-245.62074955 332.06392685 -256.81928432 332.05857784 -268.01782227 332.05493164 C-268.82239149 332.05466892 -269.6269607 332.05440619 -270.45591081 332.05413551 C-274.49770398 332.05282918 -278.53949717 332.05156578 -282.58129036 332.05032361 C-315.38753173 332.04018701 -348.19376493 332.02279344 -381 332 C-381.33 331.34 -381.66 330.68 -382 330 C-381.41229653 328.32319641 -381.41229653 328.32319641 -380.38901138 326.2746582 C-380.00416242 325.49452929 -379.61931345 324.71440037 -379.2228024 323.91063118 C-378.78771572 323.0493807 -378.35262904 322.18813023 -377.90435791 321.30078125 C-377.45153214 320.38888975 -376.99870637 319.47699825 -376.53215861 318.53747368 C-375.00075522 315.45861276 -373.45788098 312.38564306 -371.91503906 309.3125 C-370.819082 307.11516966 -369.72380667 304.91749919 -368.62916565 302.71951294 C-365.95318078 297.35113573 -363.26966159 291.98658757 -360.58248755 286.62380731 C-358.39437728 282.25661585 -356.20939107 277.88787487 -354.02663422 273.51800537 C-353.71605886 272.89624172 -353.4054835 272.27447808 -353.08549677 271.63387311 C-352.45449014 270.3705809 -351.82349068 269.10728512 -351.1924983 267.8439858 C-345.26394232 255.97544775 -339.32556292 244.11184607 -333.38384995 232.24989057 C-328.30281154 222.10560918 -323.23009076 211.95720568 -318.16357422 201.80566406 C-312.27409814 190.00520689 -306.37933568 178.20741471 -300.47636771 166.4137001 C-299.84395681 165.15015236 -299.21155254 163.88660129 -298.57915497 162.62304688 C-298.26806335 162.00148075 -297.95697174 161.37991462 -297.63645311 160.73951316 C-295.46160123 156.39323937 -293.29042925 152.04513959 -291.12073517 147.69628906 C-288.18338376 141.80905849 -285.23737144 135.9262159 -282.28584099 130.04607773 C-281.21050638 127.90064516 -280.1378142 125.75388552 -279.06814003 123.60562515 C-270.37706405 106.15783342 -261.18939136 89.28027274 -249 74 C-247.8553125 72.54980469 -247.8553125 72.54980469 -246.6875 71.0703125 C-242.89947 66.3480724 -239.03554458 61.87518546 -234.67578125 57.67578125 C-232.31294903 55.31294903 -230.1925593 52.76330944 -228.06640625 50.1875 C-215.88014367 37.28710861 -200.29996104 26.83048877 -185 18 C-184.29746094 17.59185059 -183.59492188 17.18370117 -182.87109375 16.76318359 C-128.507002 -14.39405414 -59.17051524 -21.34133895 0 0 Z " fill="#2C5D90" transform="translate(394,761)"/>
<path d="M0 0 C345.84 0 691.68 0 1048 0 C1048 0.66 1048 1.32 1048 2 C702.16 2 356.32 2 0 2 C0 1.34 0 0.68 0 0 Z " fill="#D1D1D1" transform="translate(0,0)"/>
</svg>
